<svg width="24" height="24" viewBox="0 0 24 24" fill="none" xmlns="http://www.w3.org/2000/svg">
<path opacity="0.7" d="M12 11.3724L2.75875 20.6136C2.47877 20.8936 2.67706 21.3724 3.07302 21.3724H21.5556C21.8011 21.3724 22 21.1734 22 20.9279V2.44534C22 2.04938 21.5213 1.85108 21.2413 2.13107L12 11.3724Z" fill="#FA4F83"/>
<path opacity="0.2" d="M15.5111 14.8835V9.91681H13.4556V12.8279L12 11.3724L2 21.3724H22L15.5111 14.8835Z" fill="white"/>
<path opacity="0.5" d="M11.1111 16.5501H9.95555C9.71009 16.5501 9.51111 16.7491 9.51111 16.9946V18.1501C9.51111 18.3956 9.71009 18.5946 9.95555 18.5946H11.1111C11.3566 18.5946 11.5556 18.3956 11.5556 18.1501V16.9946C11.5556 16.7491 11.3566 16.5501 11.1111 16.5501Z" fill="white"/>
<path opacity="0.5" d="M14.0333 16.5501H12.8778C12.6323 16.5501 12.4333 16.7491 12.4333 16.9946V18.1501C12.4333 18.3956 12.6323 18.5946 12.8778 18.5946H14.0333C14.2788 18.5946 14.4778 18.3956 14.4778 18.1501V16.9946C14.4778 16.7491 14.2788 16.5501 14.0333 16.5501Z" fill="white"/>
<path d="M11.1076 11.1088C11.2813 10.9353 11.2814 10.6538 11.1078 10.4801L2.75871 2.13107C2.47873 1.85108 2 2.04938 2 2.44534V19.1336C2 19.5294 2.47847 19.7278 2.75853 19.4481L11.1076 11.1088Z" fill="#FA4F83"/>
</svg>
